<svg width="484" height="315" viewBox="0 0 484 315" fill="none" xmlns="http://www.w3.org/2000/svg">
<path d="M372.992 178.05C375.613 178.073 378.277 178.23 380.978 178.576C391.782 179.959 403.303 185.221 411.687 195.923C426.347 214.638 433.068 244.888 439.726 276.533C442.802 277.508 445.488 279.438 447.394 282.042C449.3 284.647 450.327 287.79 450.328 291.017C450.327 293.013 449.934 294.989 449.17 296.832C448.407 298.676 447.287 300.351 445.876 301.762C444.465 303.173 442.79 304.293 440.946 305.056C439.102 305.82 437.126 306.213 435.13 306.212C432.642 306.207 430.193 305.59 427.999 304.417C425.805 303.244 423.933 301.55 422.546 299.484C421.393 297.786 420.596 295.872 420.203 293.857C412.475 257.822 403.394 222.114 393.829 209.904C388.998 203.736 384.586 201.899 378.099 201.068C371.612 200.237 363.174 201.275 353.849 202.611C352.375 202.822 350.874 202.74 349.431 202.371C347.989 202.002 346.633 201.352 345.442 200.459C344.25 199.565 343.247 198.446 342.488 197.165C341.729 195.884 341.23 194.466 341.019 192.992C340.808 191.518 340.89 190.017 341.259 188.574C341.628 187.131 342.278 185.776 343.171 184.584C344.064 183.393 345.184 182.389 346.465 181.63C347.746 180.871 349.164 180.372 350.638 180.162C355.301 179.494 360.183 178.748 365.253 178.345C367.788 178.144 370.37 178.029 372.992 178.05Z" fill="#00C896" stroke="black" stroke-width="6.39874" stroke-linecap="round" stroke-linejoin="round"/>
<path d="M354.253 212.222C362.711 212.001 372.008 214.02 378.835 221.046C386.638 229.077 389.225 239.509 391.23 250.839C392.456 257.768 393.262 265.161 393.908 272.673C397.072 273.762 399.818 275.812 401.762 278.536C403.706 281.26 404.751 284.524 404.751 287.871C404.752 289.982 404.336 292.072 403.528 294.022C402.721 295.972 401.536 297.745 400.044 299.237C398.551 300.73 396.779 301.914 394.829 302.722C392.878 303.529 390.788 303.945 388.677 303.945C385.122 303.943 381.668 302.763 378.856 300.59C376.043 298.416 374.03 295.371 373.132 291.931C372.728 290.895 372.479 289.804 372.392 288.695C371.498 276.387 370.591 264.344 368.9 254.789C367.209 245.234 364.191 238.516 362.574 236.851C360.956 235.186 358.747 234.438 352.917 235.013C347.088 235.589 339.033 237.93 330.507 240.542C329.084 240.979 327.588 241.131 326.105 240.99C324.623 240.849 323.183 240.417 321.868 239.719C320.552 239.021 319.387 238.071 318.439 236.923C317.491 235.774 316.778 234.451 316.341 233.027C315.905 231.603 315.753 230.107 315.895 228.625C316.037 227.142 316.47 225.702 317.168 224.387C317.866 223.072 318.817 221.907 319.966 220.959C321.115 220.011 322.439 219.299 323.863 218.863C332.389 216.25 341.375 213.367 350.689 212.447C351.853 212.332 353.045 212.254 354.253 212.222Z" fill="#00C896" stroke="black" stroke-width="6.39874" stroke-linecap="round"/>
<path d="M402.201 146.369C410.16 146.636 417.946 148.752 424.974 153.638C439.031 163.411 446.914 180.214 453.859 199.775C459.262 214.995 463.776 232.192 468.078 249.701C471.679 250.466 474.909 252.446 477.226 255.307C479.543 258.169 480.808 261.739 480.808 265.421C480.808 269.684 479.115 273.772 476.1 276.786C473.086 279.8 468.998 281.494 464.736 281.494C460.549 281.494 456.527 279.859 453.526 276.939C450.525 274.019 448.783 270.043 448.669 265.857C443.561 244.741 438.424 224.087 432.488 207.365C426.159 189.538 418.388 176.687 412.025 172.263C405.661 167.839 397.582 167.798 385.437 171.761C373.292 175.724 358.689 183.744 343.714 192.107C342.414 192.833 340.983 193.295 339.504 193.468C338.024 193.641 336.525 193.521 335.092 193.114C333.659 192.707 332.321 192.023 331.153 191.098C329.984 190.174 329.01 189.029 328.285 187.728C326.821 185.103 326.459 182.005 327.279 179.113C328.098 176.222 330.032 173.774 332.656 172.308C347.63 163.946 362.98 155.23 378.402 150.199C386.113 147.683 394.242 146.102 402.201 146.369Z" fill="#00C896" stroke="black" stroke-width="6.39874" stroke-linecap="round"/>
<path d="M111.016 183.071C108.394 183.094 105.73 183.251 103.029 183.597C92.225 184.98 80.7038 190.242 72.3203 200.944C57.6604 219.659 50.9388 249.909 44.2812 281.554C41.2051 282.529 38.5195 284.459 36.6134 287.063C34.7073 289.667 33.6798 292.811 33.6797 296.038C33.6798 298.034 34.073 300.01 34.8368 301.853C35.6006 303.697 36.72 305.372 38.1312 306.783C39.5424 308.194 41.2177 309.313 43.0615 310.077C44.9053 310.841 46.8814 311.234 48.877 311.233C51.3651 311.228 53.8138 310.611 56.0079 309.438C58.2021 308.265 60.0746 306.571 61.461 304.505C62.6142 302.807 63.4115 300.893 63.8047 298.878C71.5323 262.843 80.6131 227.135 90.1778 214.925C95.0095 208.757 99.4208 206.92 105.908 206.089C112.396 205.258 120.833 206.296 130.158 207.632C131.632 207.843 133.133 207.761 134.576 207.392C136.018 207.023 137.374 206.373 138.565 205.48C139.757 204.586 140.761 203.467 141.52 202.186C142.278 200.905 142.777 199.487 142.988 198.013C143.199 196.539 143.118 195.038 142.748 193.595C142.379 192.152 141.729 190.797 140.836 189.605C139.943 188.414 138.824 187.41 137.543 186.651C136.261 185.892 134.843 185.393 133.369 185.183C128.706 184.515 123.824 183.769 118.754 183.366C116.219 183.165 113.637 183.05 111.016 183.071Z" fill="#00C896" stroke="black" stroke-width="6.39874" stroke-linecap="round" stroke-linejoin="round"/>
<path d="M129.754 217.243C121.296 217.022 111.999 219.041 105.172 226.067C97.3697 234.098 94.7823 244.53 92.7774 255.86C91.5514 262.789 90.745 270.182 90.0996 277.694C86.9349 278.783 84.189 280.833 82.2451 283.557C80.3011 286.282 79.2562 289.545 79.256 292.892C79.2558 295.003 79.6713 297.093 80.4791 299.043C81.2868 300.994 82.4709 302.766 83.9636 304.258C85.4562 305.751 87.2283 306.935 89.1786 307.743C91.1289 308.55 93.2192 308.966 95.3302 308.966C98.885 308.964 102.339 307.784 105.152 305.611C107.965 303.437 109.977 300.392 110.875 296.952C111.279 295.916 111.529 294.825 111.615 293.716C112.509 281.408 113.417 269.365 115.108 259.81C116.798 250.255 119.816 243.537 121.434 241.872C123.051 240.207 125.26 239.459 131.09 240.034C136.919 240.61 144.974 242.951 153.5 245.563C154.924 246 156.419 246.152 157.902 246.011C159.384 245.87 160.824 245.438 162.14 244.74C163.455 244.042 164.62 243.092 165.568 241.943C166.517 240.795 167.23 239.471 167.666 238.048C168.102 236.624 168.254 235.128 168.112 233.646C167.97 232.163 167.538 230.723 166.839 229.408C166.141 228.092 165.19 226.928 164.041 225.98C162.893 225.032 161.569 224.32 160.145 223.884C151.619 221.271 142.633 218.388 133.318 217.468C132.154 217.353 130.962 217.275 129.754 217.243Z" fill="#00C896" stroke="black" stroke-width="6.39874" stroke-linecap="round"/>
<path d="M81.8067 151.39C73.8475 151.657 66.0617 153.773 59.0333 158.659C44.9767 168.432 37.093 185.235 30.1485 204.796C24.7454 220.016 20.2318 237.213 15.9298 254.722C12.3281 255.487 9.09846 257.466 6.78117 260.328C4.46389 263.19 3.19949 266.76 3.19934 270.442C3.19947 274.705 4.89281 278.793 7.90691 281.807C10.921 284.821 15.009 286.514 19.2716 286.515C23.4587 286.515 27.4806 284.88 30.4812 281.96C33.4818 279.04 35.2244 275.064 35.338 270.878C40.4464 249.762 45.583 229.108 51.5196 212.386C57.8481 194.559 65.6189 181.708 71.9825 177.284C78.346 172.86 86.425 172.819 98.5704 176.782C110.716 180.745 125.318 188.765 140.293 197.128C141.594 197.854 143.024 198.316 144.504 198.489C145.983 198.662 147.482 198.542 148.915 198.135C150.348 197.728 151.687 197.044 152.855 196.119C154.023 195.195 154.997 194.05 155.723 192.749C157.186 190.124 157.548 187.026 156.729 184.134C155.909 181.243 153.975 178.795 151.352 177.329C136.377 168.967 121.027 160.251 105.606 155.22C97.8947 152.704 89.7658 151.123 81.8067 151.39Z" fill="#00C896" stroke="black" stroke-width="6.39874" stroke-linecap="round"/>
<path d="M348.518 223.66L307.798 264.31C302.482 269.617 296.172 273.825 289.229 276.694C282.286 279.563 274.847 281.036 267.334 281.029L209.798 280.98C194.627 280.967 180.082 274.927 169.363 264.19L128.714 223.471C117.995 212.734 111.981 198.178 111.994 183.007L112.044 125.471C112.05 117.958 113.536 110.521 116.417 103.583C119.298 96.6454 123.517 90.3429 128.833 85.0356L169.553 44.3864C180.29 33.6678 194.845 27.6534 210.017 27.6665L267.553 27.7162C275.065 27.7226 282.502 29.2087 289.44 32.0895C296.378 34.9702 302.681 39.1893 307.988 44.5058L348.637 85.2251C359.356 95.9623 365.37 110.518 365.357 125.689L365.307 183.225C365.294 198.397 359.255 212.942 348.518 223.66Z" fill="#00C896" stroke="black" stroke-width="6.39873"/>
<path d="M182.868 182.97C206.123 182.97 224.975 164.118 224.975 140.863C224.975 117.609 206.123 98.7567 182.868 98.7567C159.613 98.7567 140.761 117.609 140.761 140.863C140.761 164.118 159.613 182.97 182.868 182.97Z" fill="white" stroke="black" stroke-width="6.39874"/>
<path d="M190.814 154.348C203.058 154.348 212.984 144.422 212.984 132.178C212.984 119.933 203.058 110.007 190.814 110.007C178.57 110.007 168.644 119.933 168.644 132.178C168.644 144.422 178.57 154.348 190.814 154.348Z" fill="black"/>
<path d="M199.397 127.59C202.914 127.59 205.765 124.739 205.765 121.222C205.765 117.706 202.914 114.855 199.397 114.855C195.88 114.855 193.03 117.706 193.03 121.222C193.03 124.739 195.88 127.59 199.397 127.59Z" fill="white"/>
<path d="M297.804 182.97C274.549 182.97 255.697 164.118 255.697 140.863C255.697 117.609 274.549 98.7567 297.804 98.7567C321.058 98.7567 339.91 117.609 339.91 140.863C339.91 164.118 321.058 182.97 297.804 182.97Z" fill="white" stroke="black" stroke-width="6.39874"/>
<path d="M289.858 154.348C277.613 154.348 267.687 144.422 267.687 132.178C267.687 119.933 277.613 110.007 289.858 110.007C302.102 110.007 312.028 119.933 312.028 132.178C312.028 144.422 302.102 154.348 289.858 154.348Z" fill="black"/>
<path d="M281.274 127.59C277.758 127.59 274.907 124.739 274.907 121.222C274.907 117.706 277.758 114.855 281.274 114.855C284.791 114.855 287.642 117.706 287.642 121.222C287.642 124.739 284.791 127.59 281.274 127.59Z" fill="white"/>
<path d="M220.139 204.991C220.139 204.991 237.88 213.911 263.869 200.04" stroke="black" stroke-width="6.39874" stroke-linecap="round"/>
<path d="M125.648 257.235C126.171 265.68 129 274.763 136.599 280.946C145.284 288.013 155.904 289.673 167.366 290.674C174.375 291.286 181.811 291.44 189.351 291.422C190.714 294.479 192.997 297.034 195.881 298.731C198.766 300.428 202.109 301.182 205.442 300.888C207.545 300.703 209.591 300.105 211.463 299.129C213.335 298.153 214.996 296.818 216.351 295.199C217.707 293.581 218.731 291.712 219.364 289.698C219.997 287.685 220.227 285.566 220.042 283.463C219.728 279.922 218.249 276.585 215.836 273.974C213.423 271.364 210.213 269.626 206.708 269.034C205.64 268.723 204.532 268.57 203.419 268.581C191.081 268.773 179.004 268.928 169.337 268.083C159.67 267.239 152.714 264.823 150.913 263.358C149.112 261.893 148.172 259.759 148.233 253.901C148.294 248.043 149.918 239.814 151.771 231.092C152.081 229.635 152.101 228.132 151.83 226.668C151.559 225.203 151.002 223.807 150.191 222.558C149.381 221.309 148.332 220.232 147.105 219.388C145.877 218.544 144.496 217.951 143.04 217.641C141.583 217.331 140.08 217.312 138.615 217.584C137.151 217.855 135.755 218.413 134.506 219.224C133.257 220.035 132.18 221.085 131.337 222.312C130.494 223.54 129.901 224.922 129.592 226.378C127.738 235.101 125.656 244.306 125.558 253.665C125.547 254.835 125.574 256.029 125.648 257.235Z" fill="#00C896"/>
<path d="M128.849 220.299C127.717 221.875 126.887 223.702 126.46 225.712C124.613 234.405 122.459 243.82 122.357 253.632C122.345 254.871 122.372 256.143 122.452 257.433C123.011 266.446 126.091 276.527 134.579 283.433C144.064 291.15 155.494 292.849 167.091 293.862C173.839 294.452 180.938 294.576 188.083 294.579C191.87 300.711 198.409 304.716 205.727 304.071C216.294 303.14 224.163 293.747 223.229 283.181C222.463 274.531 215.955 267.476 207.425 265.944C206.109 265.578 204.752 265.37 203.386 265.384H203.378H203.371C191.038 265.575 179.016 265.717 169.613 264.895C164.977 264.49 160.999 263.707 158.038 262.874C155.078 262.041 152.929 260.88 152.929 260.88C152.407 260.455 152.216 260.255 151.925 259.323C151.634 258.392 151.402 256.688 151.431 253.935C151.471 250.102 152.303 244.757 153.459 238.802C153.803 237.03 152.632 235.78 150.83 235.662C149.055 235.547 147.347 236.622 147.003 238.396C145.892 244.135 145.077 249.442 145.031 253.868C144.997 256.972 145.208 259.261 145.822 261.227C146.436 263.194 147.613 264.8 148.892 265.841C150.689 267.303 152.925 268.086 156.31 269.038C159.695 269.99 164.029 270.835 169.06 271.274C178.986 272.141 191.112 271.976 203.451 271.784C204.249 271.777 205.047 271.885 205.814 272.108L205.992 272.159L206.175 272.189C211.965 273.167 216.33 277.899 216.849 283.748C217.474 290.866 212.276 297.073 205.158 297.701C199.672 298.185 194.51 295.149 192.267 290.119L191.427 288.215L189.345 288.222C181.854 288.241 174.502 288.083 167.642 287.484C156.314 286.494 146.501 284.878 138.617 278.462C131.908 273.004 129.332 264.914 128.843 257.041C128.774 255.917 128.742 254.797 128.753 253.697C128.846 244.79 130.859 235.792 132.718 227.041C132.854 226.402 133.059 225.798 133.323 225.234C133.741 224.345 133.946 222.976 133.674 222.031C132.809 219.031 132.991 216.421 132.991 216.421L128.849 220.299Z" fill="black"/>
<path d="M349.513 258.824C348.99 267.269 346.161 276.352 338.562 282.535C329.877 289.601 319.257 291.262 307.795 292.263C300.786 292.875 293.35 293.029 285.81 293.011C284.447 296.068 282.164 298.623 279.28 300.32C276.395 302.017 273.053 302.771 269.719 302.477C267.616 302.292 265.57 301.694 263.698 300.718C261.827 299.742 260.165 298.406 258.81 296.788C257.454 295.17 256.43 293.301 255.797 291.287C255.164 289.273 254.934 287.155 255.12 285.052C255.434 281.511 256.913 278.174 259.325 275.563C261.738 272.952 264.948 271.215 268.453 270.623C269.521 270.312 270.629 270.159 271.742 270.17C284.081 270.362 296.157 270.517 305.824 269.672C315.491 268.828 322.447 266.412 324.248 264.947C326.049 263.482 326.989 261.347 326.928 255.49C326.867 249.632 325.243 241.403 323.39 232.68C323.08 231.224 323.06 229.721 323.331 228.256C323.602 226.792 324.159 225.396 324.97 224.147C325.781 222.897 326.829 221.82 328.057 220.977C329.284 220.133 330.665 219.54 332.121 219.23C333.578 218.92 335.082 218.901 336.546 219.173C338.01 219.444 339.407 220.002 340.655 220.813C341.904 221.624 342.981 222.674 343.824 223.901C344.667 225.129 345.26 226.51 345.57 227.967C347.423 236.69 349.505 245.895 349.603 255.254C349.614 256.423 349.588 257.618 349.513 258.824Z" fill="#00C896"/>
<path d="M346.312 221.888C347.444 223.464 348.275 225.29 348.701 227.301C350.548 235.994 352.702 245.409 352.805 255.221C352.816 256.46 352.79 257.732 352.709 259.021C352.151 268.035 349.07 278.116 340.582 285.021C331.097 292.739 319.668 294.438 308.07 295.451C301.322 296.041 294.223 296.165 287.078 296.168C283.291 302.3 276.752 306.305 269.434 305.66C258.867 304.729 250.998 295.336 251.932 284.769C252.699 276.12 259.206 269.065 267.736 267.533C269.053 267.167 270.409 266.959 271.775 266.973H271.783H271.791C284.123 267.164 296.146 267.306 305.548 266.484C310.185 266.079 314.162 265.296 317.123 264.463C320.083 263.63 322.232 262.469 322.232 262.469C322.754 262.044 322.945 261.844 323.236 260.912C323.527 259.98 323.759 258.277 323.73 255.523C323.69 251.691 322.859 246.346 321.702 240.391C321.358 238.619 322.529 237.368 324.331 237.251C326.106 237.136 327.814 238.21 328.158 239.985C329.27 245.724 330.085 251.031 330.13 255.457C330.164 258.561 329.954 260.85 329.339 262.816C328.725 264.783 327.548 266.389 326.269 267.43C324.472 268.892 322.236 269.675 318.851 270.627C315.466 271.579 311.132 272.424 306.101 272.863C296.175 273.73 284.049 273.565 271.711 273.373C270.912 273.365 270.114 273.474 269.347 273.697L269.17 273.748L268.986 273.778C263.196 274.756 258.831 279.488 258.312 285.337C257.687 292.454 262.885 298.662 270.003 299.29C275.489 299.773 280.652 296.738 282.894 291.708L283.734 289.803L285.816 289.811C293.308 289.83 300.659 289.672 307.519 289.073C318.847 288.083 328.66 286.467 336.545 280.051C343.253 274.593 345.829 266.503 346.318 258.629C346.387 257.506 346.419 256.386 346.408 255.286C346.315 246.379 344.302 237.381 342.443 228.629C342.307 227.991 342.102 227.387 341.838 226.823C341.42 225.934 341.215 224.565 341.488 223.619C342.352 220.62 342.17 218.01 342.17 218.01L346.312 221.888Z" fill="black"/>
</svg>
